<svg xmlns="http://www.w3.org/2000/svg" viewBox="0 0 584.71 134.12"><defs><style>.cls-1{fill:#172d72;}.cls-2{fill:#00aeef;}.cls-3{fill:#3d3fea;}</style></defs><g id="图层_2" data-name="图层 2"><g id="Layer_1" data-name="Layer 1"><path class="cls-1" d="M437,85.63h0l-.18.27a30.54,30.54,0,0,1-10.45,10A27.94,27.94,0,0,1,412.08,100c-8.34,0-15.63-3.33-21.65-9.88a33.37,33.37,0,0,1-8.67-23.61,32.83,32.83,0,0,1,8.94-22.39c5.81-6.22,12.81-9.38,20.81-9.38,10.95-.09,19.2,4.42,25.24,13.82l.17.27h.17l7.12-4.4A39.24,39.24,0,0,0,432.45,32a36.6,36.6,0,0,0-20.36-6.16,35.72,35.72,0,0,0-27.2,11.58c-7.57,7.8-11.41,17.74-11.41,29.55a42.73,42.73,0,0,0,11.3,29.64c7.48,8.11,16.53,12.22,26.92,12.22h.39c13.66-.28,24.92-6.9,32.09-18.74Z"/><polygon class="cls-1" points="490.18 26.82 480.52 26.82 444.59 107.24 456.06 107.24 467.16 80.51 467.18 80.51 471.1 72.16 471.08 72.16 485.55 38.22 499.72 72.16 479.37 72.16 475.67 80.51 503.02 80.51 514.23 107.24 524.33 107.24 490.18 26.82"/><path class="cls-1" d="M576.89,34.18c-5.34-4.81-12-7.25-19.95-7.25h-26v80.31h9.49V75.78h0V67.33h0V35.59h17a18.82,18.82,0,0,1,12.36,4.29,13.8,13.8,0,0,1,5.62,10.64,14.13,14.13,0,0,1-5,12.24,17.84,17.84,0,0,1-12.43,4.57H548v8.45H559.4A25.44,25.44,0,0,0,577.1,69a22.08,22.08,0,0,0,7.6-16.7A22.72,22.72,0,0,0,576.89,34.18Z"/><rect class="cls-1" x="223.8" y="28.41" width="9.48" height="9.48"/><rect class="cls-1" x="223.8" y="49.65" width="9.48" height="57.72"/><path class="cls-1" d="M366.58,101.59V76.81a29.42,29.42,0,0,0-9.33-22.25,30.06,30.06,0,0,0-43.57.42,30.59,30.59,0,0,0-8.6,21.72,31.2,31.2,0,0,0,9.33,22.54,29,29,0,0,0,22.26,8.93,29.55,29.55,0,0,0,20.94-9.4v3.94m0,0a18.07,18.07,0,0,1-6.18,13.63A20.66,20.66,0,0,1,337,122.23a21.14,21.14,0,0,1-12.89-4.31,19.74,19.74,0,0,1-6.84-8L310,114.08a27.86,27.86,0,0,0,7.58,9.16A31.12,31.12,0,0,0,336,129.76l1.35,0a31.14,31.14,0,0,0,19.83-7c6.23-5,9.39-11.32,9.39-18.89v-2.25m-9.17-24.18A22.28,22.28,0,0,1,351,92.81a19.58,19.58,0,0,1-14.86,6.39,20.78,20.78,0,0,1-15.39-6.4,21.49,21.49,0,0,1-6.6-15.5,21.82,21.82,0,0,1,6-15.7A20.75,20.75,0,0,1,335,54.4l1.14,0A19.44,19.44,0,0,1,351,61,21.73,21.73,0,0,1,357.41,77.41Z"/><path class="cls-1" d="M206.93,34.18c-5.34-4.81-12.06-7.25-20-7.25H161v80.31h9.48V75.78h0V67.33h0V35.59h16.95a18.82,18.82,0,0,1,12.36,4.29,13.74,13.74,0,0,1,5.62,10.64,14.08,14.08,0,0,1-5,12.24,17.82,17.82,0,0,1-12.42,4.57h-9.82v8.45h11.36A25.42,25.42,0,0,0,207.13,69a22.06,22.06,0,0,0,7.61-16.7A22.72,22.72,0,0,0,206.93,34.18Z"/><path class="cls-1" d="M270.5,46.12a25.63,25.63,0,0,0-19,7.77A26.6,26.6,0,0,0,244,73.19v33.93h9.14V72.37a16.59,16.59,0,0,1,5.15-12.27A16.82,16.82,0,0,1,270.5,55a16.38,16.38,0,0,1,12.06,5.14,16.66,16.66,0,0,1,5.25,12.27v34.75H297V73.19a26.6,26.6,0,0,0-7.56-19.3A25.49,25.49,0,0,0,270.5,46.12Z"/><path class="cls-1" d="M67.06,31.27,8.11,14.69a6.39,6.39,0,0,0-5.58,1,6.21,6.21,0,0,0-2.53,5V127.85a6.2,6.2,0,0,0,2.42,4.92,6.37,6.37,0,0,0,3.93,1.35A6.25,6.25,0,0,0,7.84,134l59-13.85h0a6.28,6.28,0,0,0,4.89-6.1V37.3A6.3,6.3,0,0,0,67.06,31.27Z"/><path class="cls-2" d="M107.22,27.46a6.32,6.32,0,0,0-4.62-6L27.57.25a6.36,6.36,0,0,0-5.58,1,6.19,6.19,0,0,0-2.54,5V87.57a6.2,6.2,0,0,0,2.43,4.92,6.35,6.35,0,0,0,3.93,1.35,6.47,6.47,0,0,0,1.5-.18l75.12-17.82a6.27,6.27,0,0,0,4.87-6.11Z"/><path class="cls-3" d="M67.06,31.27,19.45,17.88V87.57a6.2,6.2,0,0,0,2.43,4.92,6.35,6.35,0,0,0,3.93,1.35,6.47,6.47,0,0,0,1.5-.18L71.68,83.13V37.3A6.3,6.3,0,0,0,67.06,31.27Z"/></g></g></svg>